<svg width="91" height="36" viewBox="0 0 91 36" fill="none" xmlns="http://www.w3.org/2000/svg">
<path d="M31.9606 15.9097V23.6161H28.8419V16.9769C28.8419 15.3848 28.1369 14.5548 26.9456 14.5548C25.7544 14.5548 25.0025 15.368 25.0025 16.9769V23.6161H21.8838V11.709H24.3444L25.0025 13.4024C25.7231 12.4034 26.6481 11.4888 28.2306 11.4888C30.5819 11.4888 31.9606 13.1828 31.9606 15.9097ZM9.09626 8L3 23.5985H7.23125L13.3275 8H9.09626ZM15.2238 11.5225L13.03 17.3315H17.5119L15.2238 11.5225ZM14.0325 20.0253L15.4275 23.5992H19.9725L18.5775 20.0253H14.0325ZM42.7581 12.912C43.5731 13.7928 43.9494 15.114 43.9494 16.7061V23.5992H41.4419L40.9406 22.3118C40.1881 23.2263 39.1381 23.8194 37.6181 23.8194C35.5494 23.8194 33.8412 22.532 33.8412 20.178V20.1274C33.8412 17.5363 35.675 16.3334 38.2762 16.3334C39.3887 16.3334 40.1881 16.5366 40.9719 16.8244V16.6381C40.9719 15.2324 40.1725 14.4698 38.6056 14.4698C37.4931 14.4698 36.6781 14.6901 35.7694 15.046L34.7975 12.5393C36.0044 11.9632 37.195 11.591 39.06 11.591C40.7525 11.5731 41.9906 12.0649 42.7581 12.912ZM41.0031 18.8223C40.47 18.5515 39.765 18.3819 39.0131 18.3819C37.6813 18.3819 36.8506 18.9581 36.8506 20.0246V20.0754C36.8506 20.99 37.5556 21.5149 38.5588 21.5149C40.0163 21.5149 41.0038 20.651 41.0038 19.4317L41.0031 18.8223ZM57.9125 17.6369V17.6877C57.9125 21.6506 55.515 23.8357 52.8975 23.8357C51.2363 23.8357 50.2019 23.0225 49.4656 22.0572V27.3245H46.3469V11.709H48.7919L49.4656 13.4199C50.2181 12.3189 51.2681 11.4895 52.8975 11.4895C55.4681 11.4888 57.9125 13.6739 57.9125 17.6369ZM54.7781 17.6369C54.7781 15.6551 53.54 14.3514 52.0825 14.3514C50.625 14.3514 49.4181 15.6557 49.4181 17.6369V17.6877C49.4181 19.6695 50.625 20.9731 52.0825 20.9731C53.54 20.9731 54.7781 19.6857 54.7781 17.6877V17.6369ZM83.645 11.4888C82.0619 11.4888 81.1375 12.4034 80.4169 13.4024L79.7588 11.709H77.2981V23.5985H80.4169V16.9763C80.4169 15.3842 81.1694 14.5541 82.36 14.5541C83.5506 14.5541 84.2562 15.3673 84.2562 16.9763V23.6154H87.375V15.9097C87.375 13.1828 85.9956 11.4888 83.645 11.4888ZM73.7094 12.912C74.5244 13.7928 74.9006 15.114 74.9006 16.7061V23.5992H72.3931L71.8919 22.3118C71.1394 23.2263 70.0894 23.8194 68.5694 23.8194C66.5006 23.8194 64.7925 22.532 64.7925 20.178V20.1274C64.7925 17.5363 66.6262 16.3334 69.2275 16.3334C70.34 16.3334 71.1394 16.5366 71.9231 16.8244V16.6381C71.9231 15.2324 71.1238 14.4698 69.5569 14.4698C68.4444 14.4698 67.6294 14.6901 66.7206 15.046L65.7487 12.5393C66.9556 11.9632 68.1462 11.591 70.0112 11.591C71.7037 11.5731 72.9419 12.0649 73.7094 12.912ZM71.9544 18.8223C71.4213 18.5515 70.7162 18.3819 69.9644 18.3819C68.6325 18.3819 67.8019 18.9581 67.8019 20.0246V20.0754C67.8019 20.99 68.5069 21.5149 69.51 21.5149C70.9675 21.5149 71.955 20.651 71.955 19.4317L71.9544 18.8223ZM59.7931 23.5985H62.9119V8H59.7931V23.5985Z" fill="white"/>
</svg>
