<svg width="91" height="36" viewBox="0 0 91 36" fill="none" xmlns="http://www.w3.org/2000/svg">
<path d="M38.7146 23.5679C37.8484 24.0914 36.8808 24.3603 35.6967 24.3603C32.2887 24.3603 30.3106 21.9062 30.3106 17.7621C30.3106 14.8147 31.3933 12.8538 32.8368 11.837C33.6601 11.269 34.8579 10.895 35.8976 10.895C36.7209 10.895 37.6163 11.0891 38.2795 11.463C38.7419 11.7177 38.9584 11.8815 39.4929 12.3606L37.9186 14.56C37.269 13.9313 36.5609 13.5573 35.9698 13.5573C34.5262 13.5573 33.8766 14.8592 33.8766 17.851C33.8766 19.5269 34.0931 20.5295 34.497 21.0834C34.8286 21.5322 35.3924 21.8011 35.9405 21.8011C36.6916 21.8011 37.3705 21.4716 38.1644 20.7539L38.3517 20.574L39.8246 22.5935C39.3622 23.1171 39.1457 23.2808 38.7126 23.5658L38.7146 23.5679Z" fill="white"/>
<path d="M49.47 22.5655C48.5316 23.6733 47.3046 24.3465 45.3987 24.3465C42.0492 24.3465 39.8545 21.7428 39.8545 17.7179C39.8545 13.6931 42.0784 11.0146 45.3987 11.0146C47.1602 11.0146 48.5316 11.6433 49.6007 12.9451C50.5975 14.1419 51.0306 15.5488 51.0306 17.6128C51.0169 19.8122 50.5253 21.3081 49.4719 22.5655H49.47ZM46.8423 14.156C46.5243 13.7376 46.019 13.4828 45.4416 13.4828C44.6769 13.4828 44.0409 13.9761 43.7815 14.7847C43.5649 15.4579 43.4498 16.3554 43.4498 17.6269C43.4498 19.1087 43.5942 20.2003 43.8537 20.8594C44.1424 21.5628 44.8642 21.9065 45.5001 21.9065C46.9008 21.9065 47.5075 20.6046 47.5075 17.5825C47.4938 15.8622 47.2773 14.7402 46.8442 14.156H46.8423Z" fill="white"/>
<path d="M60.1129 24.421C59.7091 24.1218 59.3619 23.7034 59.1453 23.1636C58.3514 23.956 57.1965 24.3907 55.8817 24.3907C54.1494 24.3907 52.6473 23.5376 52.2435 22.3105C52.0562 21.7425 51.984 21.0532 51.984 19.7675V11.5682L55.1755 10.9395V19.1691C55.1755 20.3214 55.2769 20.9197 55.4349 21.2634C55.6086 21.607 56.0846 21.8618 56.5762 21.8618C57.3701 21.8618 58.3377 21.2634 58.5835 20.6347V11.641L61.6736 10.9678V20.7378C61.6736 21.5909 61.933 22.4581 62.4246 23.0565L60.1149 24.419L60.1129 24.421Z" fill="white"/>
<path d="M72.7774 22.895C71.9406 23.8229 70.8286 24.3465 69.4709 24.3465C68.5033 24.3465 67.5942 24.0918 66.8861 23.6733C66.929 23.9725 66.929 24.3465 66.929 24.7204V28.715L63.8097 29.568V14.7705C63.8097 13.0947 63.7804 12.6156 63.6224 11.5381L66.4959 11.0146C66.611 11.4634 66.6832 11.807 66.7124 12.2113C67.2606 11.5078 68.5033 11.0146 69.7596 11.0146C70.6257 11.0146 71.5211 11.3138 72.2 11.7929C73.5285 12.7207 74.4961 14.3662 74.4961 17.3136C74.4961 20.0669 74.063 21.4577 72.7774 22.895ZM70.655 14.815C70.4092 14.1115 69.9039 13.7376 69.11 13.7376C68.316 13.7376 67.5357 14.0812 66.9582 14.7099V20.9341C67.3913 21.3081 68.0995 21.6821 68.7491 21.6821C70.337 21.6821 70.973 20.5602 70.973 17.6269C70.973 16.414 70.8715 15.4417 70.655 14.813V14.815Z" fill="white"/>
<path d="M84.3153 24.7197C83.5642 24.3902 82.8853 23.8221 82.583 23.1631C82.3372 23.4178 82.0777 23.6564 81.8319 23.8363C81.2252 24.2851 80.3591 24.5398 79.3486 24.5398C76.6058 24.5398 75.1037 23.0883 75.1037 20.5453C75.1037 17.5373 77.111 16.1465 81.0379 16.1465C81.2837 16.1465 81.5003 16.1465 81.7597 16.1768V15.6532C81.7597 14.2321 81.5003 13.753 80.3162 13.753C79.2764 13.753 78.0786 14.2766 76.7501 15.2044L75.3787 12.811C76.0283 12.3925 76.5199 12.1378 77.3861 11.7638C78.5995 11.2402 79.6236 11.0158 80.7648 11.0158C82.8444 11.0158 84.2587 11.8083 84.7503 13.2456C84.9239 13.7692 84.9961 14.1735 84.9668 15.5501L84.8947 19.8438C84.8654 21.2508 84.9668 21.8491 86.0495 22.6861L84.3172 24.7217L84.3153 24.7197ZM81.5568 18.4651C79.3193 18.4651 78.539 18.8836 78.539 20.4098C78.539 21.4125 79.1457 22.0857 79.9689 22.0857C80.5756 22.0857 81.1823 21.7562 81.6583 21.2184L81.7012 18.4651H81.5568Z" fill="white"/>
<path d="M28.3222 19.1693C27.6648 18.2636 25.4078 17.0265 25.4078 17.0265C26.3851 16.9476 27.4737 16.5878 27.4737 16.5878C28.4569 16.2401 28.4939 15.7307 28.4939 15.7307C28.5622 15.1889 27.6083 14.7422 27.6083 14.7422C26.5568 14.164 24.4421 13.8426 24.4421 13.8426C25.3414 13.3332 25.8896 12.8642 25.8896 12.8642C26.7987 12.0374 26.5509 11.6371 26.5509 11.6371C26.4222 11.1459 25.4312 11.0367 25.4312 11.0367C24.5221 10.9094 23.0259 11.1762 23.0259 11.1762C23.5994 10.4181 23.8062 9.71667 23.8062 9.71667C23.9622 9.15267 23.7535 8.88583 23.7535 8.88583C23.5058 8.44716 22.6318 8.6392 22.6318 8.6392C21.3443 8.95254 20.4567 9.56708 20.4567 9.56708C20.6186 8.96669 20.5913 8.08733 20.5913 8.08733C20.5562 7.75378 20.484 7.31309 20.205 7.10083C19.8422 6.82388 19.3311 7.05029 18.9955 7.26659C18.6581 7.48492 18.3713 7.78815 18.106 8.09339C18.0592 8.14797 17.8134 8.38449 17.8231 8.43907C17.7353 8.11563 17.63 7.79825 17.5071 7.48694C17.3237 7.02199 16.8653 6.45597 16.3444 6.42969C15.8236 6.45799 15.3651 7.02199 15.1817 7.48694C15.0588 7.79825 14.9535 8.11563 14.8657 8.43907C14.8755 8.38449 14.6316 8.14797 14.5829 8.09339C14.3195 7.78815 14.0308 7.48492 13.6933 7.26659C13.3558 7.04827 12.8467 6.82388 12.4838 7.10083C12.2048 7.31309 12.1327 7.75378 12.0976 8.08733C12.0976 8.08733 12.0702 8.96467 12.2322 9.56708C12.2322 9.56708 11.3446 8.95052 10.057 8.6392C10.057 8.6392 9.18113 8.44918 8.93533 8.88583C8.93533 8.88583 8.72464 9.15267 8.88266 9.71667C8.88266 9.71667 9.08749 10.4181 9.66297 11.1762C9.66297 11.1762 8.16672 10.9094 7.25765 11.0367C7.25765 11.0367 6.26665 11.1479 6.1379 11.6371C6.1379 11.6371 5.89015 12.0394 6.79922 12.8642C6.79922 12.8642 7.34739 13.3332 8.2467 13.8426C8.2467 13.8426 6.134 14.164 5.08057 14.7422C5.08057 14.7422 4.12664 15.1869 4.19492 15.7307C4.19492 15.7307 4.23198 16.2401 5.21518 16.5878C5.21518 16.5878 6.30372 16.9456 7.28106 17.0265C7.28106 17.0265 5.024 18.2636 4.36659 19.1693C4.36659 19.1693 3.83792 19.7151 3.97058 20.2144C3.97058 20.2144 4.08567 20.8451 5.69117 20.7319C5.69117 20.7319 6.93967 20.6531 8.45934 20.1901C8.45348 20.1901 8.44958 20.1942 8.44958 20.1942C8.44958 20.1942 6.94358 21.961 6.50855 22.9071C6.50855 22.9071 5.52925 24.5081 6.11839 25.1327C6.11839 25.1327 6.38955 25.5047 7.45663 25.1631C7.45663 25.1631 8.97044 24.6314 10.5759 23.2831C10.5759 23.2831 9.90487 25.2136 9.83464 26.7217C9.83464 26.7217 9.68833 28.1974 10.4238 28.5006C10.4238 28.5006 11.0402 28.818 12.2068 27.5687C12.2068 27.5687 13.6133 25.9798 14.417 24.3686C14.5165 25.2621 14.655 26.1657 14.8755 27.037C15.014 27.5848 15.1837 28.1266 15.4256 28.636C15.6051 29.0141 15.8821 29.5457 16.3444 29.572C16.8087 29.5457 17.0838 29.014 17.2632 28.634C17.5032 28.1246 17.6749 27.5828 17.8134 27.035C18.0338 26.1637 18.1743 25.2621 18.2718 24.3666C19.0755 25.9798 20.482 27.5666 20.482 27.5666C21.6486 28.8159 22.2651 28.4986 22.2651 28.4986C23.0005 28.1933 22.8542 26.7196 22.8542 26.7196C22.784 25.2136 22.1129 23.281 22.1129 23.281C23.7184 24.6294 25.2322 25.161 25.2322 25.161C26.2973 25.5027 26.5704 25.1307 26.5704 25.1307C27.1596 24.5061 26.1803 22.905 26.1803 22.905C25.7453 21.961 24.2393 20.1922 24.2393 20.1922C24.2393 20.1922 24.2353 20.1922 24.2295 20.1881C25.7492 20.651 26.9977 20.7299 26.9977 20.7299C28.6032 20.8431 28.7183 20.2124 28.7183 20.2124C28.8509 19.7131 28.3222 19.1673 28.3222 19.1673V19.1693ZM25.6945 18.9691C25.6945 18.9691 25.4565 19.9152 21.9588 18.8479C21.9588 18.8479 19.9865 18.2091 19.1301 17.6976C19.1301 17.6976 20.9346 20.8653 21.1082 23.3983C21.1082 23.3983 21.2253 24.6375 20.6596 24.8639C20.6596 24.8639 20.0334 25.1489 18.7673 23.4973C18.7673 23.4973 17.2457 21.587 16.3542 18.7488C15.4627 21.587 13.941 23.4973 13.941 23.4973C12.675 25.1509 12.0488 24.8639 12.0488 24.8639C11.4831 24.6375 11.6001 23.3983 11.6001 23.3983C11.7737 20.8653 13.5782 17.6976 13.5782 17.6976C12.7218 18.2091 10.7496 18.8479 10.7496 18.8479C7.2518 19.9152 7.0138 18.9691 7.0138 18.9691C6.73484 18.1949 8.75391 16.9678 8.75391 16.9678C10.2892 15.9247 12.6399 15.1667 12.6399 15.1667C9.90097 14.354 8.89046 13.3797 8.89046 13.3797C8.04382 12.6398 8.32083 12.2921 8.32083 12.2921C8.74805 11.5441 11.1475 12.0151 11.1475 12.0151C12.9188 12.3588 13.8767 12.846 13.8767 12.846C13.1373 11.4289 12.9676 10.2079 12.9676 10.2079C12.7296 8.65942 13.3792 8.526 13.3792 8.526C13.8572 8.35417 14.5516 9.05159 14.5516 9.05159C15.8977 10.4848 16.3542 11.9161 16.3542 11.9161C16.3542 11.9161 16.8126 10.4848 18.1567 9.05159C18.1567 9.05159 18.8512 8.35417 19.3291 8.526C19.3291 8.526 19.9787 8.65942 19.7407 10.2079C19.7407 10.2079 19.573 11.4289 18.8317 12.846C18.8317 12.846 19.7915 12.3608 21.5608 12.0151C21.5608 12.0151 23.9583 11.5441 24.3875 12.2921C24.3875 12.2921 24.6645 12.6398 23.8179 13.3797C23.8179 13.3797 22.8074 14.352 20.0685 15.1667C20.0685 15.1667 22.4192 15.9247 23.9544 16.9678C23.9544 16.9678 25.9715 18.1949 25.6945 18.9691Z" fill="white"/>
</svg>
