<svg width="91" height="36" viewBox="0 0 91 36" fill="none" xmlns="http://www.w3.org/2000/svg">
<path d="M35.2036 15.4072H37.7668V28.4502C37.7668 31.8894 36.2419 34.258 32.7054 34.258C31.6671 34.2904 30.6289 34.0957 29.623 33.7713V31.273C30.4666 31.5974 31.3751 31.7597 32.2836 31.7597C34.4574 31.7597 35.2036 30.4619 35.2036 28.58V15.4072Z" fill="white"/>
<path d="M42.4719 14.4014C43.4128 14.4014 44.1915 15.1801 44.1915 16.121C44.1915 17.0619 43.4128 17.8406 42.4719 17.8406C41.531 17.8406 40.7523 17.0619 40.7523 16.121C40.6874 15.2449 41.3688 14.4663 42.2448 14.4014C42.3097 14.4014 42.407 14.4014 42.4719 14.4014ZM41.2066 19.8846H43.6724V34.1606H41.2066V19.8846Z" fill="white"/>
<path d="M49.772 34.1601H47.3711V19.8842H49.772V22.4149C50.6156 20.7277 52.0108 19.5273 54.8335 19.6895V22.0904C51.6863 21.766 49.772 22.7069 49.772 25.7568V34.1601Z" fill="white"/>
<path d="M66.3162 31.5971C65.4077 33.4789 63.6881 34.4522 61.4819 34.4522C57.6858 34.4522 55.7715 31.2402 55.7715 27.0223C55.7715 22.999 57.7831 19.5923 61.7739 19.5923C63.8504 19.5923 65.4726 20.5332 66.3162 22.3826V19.8843H68.7821V34.1602H66.3162V31.5971ZM62.1632 32.1486C64.3695 32.1486 66.3487 30.7535 66.3487 27.5738V26.4382C66.3487 23.2586 64.5317 21.8635 62.4552 21.8635C59.6974 21.8635 58.2698 23.6804 58.2698 26.9898C58.2373 30.4615 59.6325 32.1486 62.1632 32.1486Z" fill="white"/>
<path d="M22.3237 12.4858H11.0977C11.0977 15.2761 13.3688 17.5473 16.1591 17.5473H18.2356V19.5265C18.2356 22.3168 20.5068 24.5879 23.2971 24.5879V13.4592C23.2971 12.9076 22.8429 12.4858 22.3237 12.4858Z" fill="white"/>
<path d="M16.773 18.0664H5.54688C5.54688 20.8567 7.81805 23.1279 10.6083 23.1279H12.6848V25.1395C12.6848 27.9298 14.956 30.201 17.7463 30.201V19.0722C17.7463 18.5206 17.2921 18.0664 16.773 18.0664Z" fill="white"/>
<path d="M11.2261 23.6479H0C0 26.4382 2.27117 28.7094 5.06147 28.7094H7.10552V30.6886C7.10552 33.4789 9.37669 35.75 12.167 35.75V24.5889C12.1994 24.1022 11.7452 23.6479 11.2261 23.6479Z" fill="white"/>
<path d="M64.1749 6.1588C64.1749 4.86099 63.3313 4.27698 61.7739 3.88763C60.8006 3.62807 60.5734 3.4334 60.5734 3.10894C60.5734 2.7196 60.9303 2.52493 61.5792 2.52493C62.3579 2.55737 63.1366 2.75205 63.8504 3.10894V1.48668C63.1691 1.16223 62.3904 1 61.6441 1C59.9245 1 58.9836 1.81113 58.9836 3.14139C58.9836 4.40676 59.8272 5.05566 61.2548 5.38012C62.2606 5.60723 62.5526 5.76946 62.5526 6.19125C62.5526 6.5157 62.3255 6.77526 61.5792 6.77526C60.6708 6.74282 59.7623 6.48326 58.9512 6.02902V7.74862C59.7623 8.13797 60.6383 8.36508 61.5468 8.36508C63.2988 8.36508 64.1749 7.48906 64.1749 6.1588Z" fill="white"/>
<path d="M83.7715 1.1301V8.26807H85.2964V2.81726L85.9453 4.24485L88.0867 8.23562H90.001V1.09766H88.4761V5.70489L87.892 4.37463L86.1724 1.09766H83.7715V1.1301Z" fill="white"/>
<path d="M74.1391 1.12939H72.4844V8.26736H74.1391V1.12939Z" fill="white"/>
<path d="M46.1055 1.12939V8.26736H49.5122L50.0314 6.70999H47.7602V1.12939H46.1055Z" fill="white"/>
<path d="M39.3574 1.12939V2.68677H41.2068V8.26736H42.8615V2.68677H44.8407V1.12939H39.3574Z" fill="white"/>
<path d="M36.9553 1.12939H34.7815L32.2832 8.26736H34.1975L34.5544 7.06689C34.9762 7.19667 35.4304 7.26156 35.8846 7.26156C36.3389 7.26156 36.7931 7.19667 37.2149 7.06689L37.5718 8.26736H39.4861L36.9553 1.12939ZM35.8522 5.76907C35.5277 5.76907 35.2357 5.73663 34.9437 5.63929L35.8522 2.52454L36.7607 5.63929C36.4686 5.73663 36.1766 5.76907 35.8522 5.76907Z" fill="white"/>
<path d="M55.3518 1.12939H53.178L50.6797 8.26736H52.594L52.9509 7.06689C53.3726 7.19667 53.8269 7.26156 54.2811 7.26156C54.7353 7.26156 55.1896 7.19667 55.6114 7.06689L55.9683 8.26736H57.8825L55.3518 1.12939ZM54.2811 5.76907C53.9567 5.76907 53.6647 5.73663 53.3726 5.63929L54.2811 2.52454L55.1896 5.63929C54.8976 5.73663 54.5731 5.76907 54.2811 5.76907Z" fill="white"/>
<path d="M80.1077 1.12939H77.9338L75.4355 8.26736H77.3498L77.7067 7.06689C78.1285 7.19667 78.5827 7.26156 79.037 7.26156C79.4912 7.26156 79.9454 7.19667 80.3672 7.06689L80.7241 8.26736H82.6384L80.1077 1.12939ZM79.0045 5.76907C78.6801 5.76907 78.3881 5.73663 78.0961 5.63929L79.0045 2.52454L79.913 5.63929C79.621 5.73663 79.329 5.76907 79.0045 5.76907Z" fill="white"/>
<path d="M70.7612 6.1588C70.7612 4.86099 69.9177 4.27698 68.3603 3.88763C67.3869 3.62807 67.1598 3.4334 67.1598 3.10894C67.1598 2.7196 67.5167 2.52493 68.1332 2.52493C68.9119 2.55737 69.6906 2.75205 70.4043 3.10894V1.48668C69.6906 1.16223 68.9443 1 68.1656 1C66.446 1 65.5051 1.81113 65.5051 3.14139C65.5051 4.40676 66.3487 5.05566 67.7763 5.38012C68.7821 5.60723 69.0741 5.76946 69.0741 6.19125C69.0741 6.5157 68.847 6.77526 68.1007 6.77526C67.1923 6.74282 66.2838 6.48326 65.4727 6.02902V7.74862C66.2838 8.13797 67.1598 8.36508 68.0683 8.36508C69.9177 8.36508 70.7612 7.48906 70.7612 6.1588Z" fill="white"/>
</svg>
