<svg width="91" height="36" viewBox="0 0 91 36" fill="none" xmlns="http://www.w3.org/2000/svg">
<path d="M39.8536 19.6119H45.8007L42.6561 14.5527L36.8847 23.6998H34.2582L41.278 12.7121C41.5831 12.2682 42.0919 12 42.6561 12C43.2017 12 43.7104 12.2589 44.0065 12.6936L51.0541 23.6998H48.4275L47.1883 21.6558H41.1672L39.8536 19.6119ZM67.1379 21.6557V12.1109H64.909V22.5899C64.909 22.8766 65.0199 23.1542 65.2326 23.3669C65.4453 23.5796 65.732 23.6998 66.0464 23.6998H76.211L77.5244 21.6558L67.1379 21.6557ZM30.2625 19.9446C32.4269 19.9446 34.1842 18.1966 34.1842 16.0324C34.1842 13.868 32.4269 12.1107 30.2625 12.1107H20.5114V23.7H22.7396V14.1551H30.1147C31.1505 14.1551 31.9829 14.9969 31.9829 16.0328C31.9829 17.0685 31.1505 17.9101 30.1147 17.9101L23.831 17.901L30.4845 23.7H33.7217L29.2452 19.945H30.2627L30.2625 19.9446ZM6.79551 23.6998C3.59629 23.7 1 21.1102 1 17.9101C1 14.7098 3.59629 12.1111 6.79551 12.1111H13.5314C16.7314 12.1111 19.3257 14.7098 19.3257 17.9101C19.3257 21.1102 16.7314 23.6998 13.5313 23.6998H6.79551ZM13.3817 21.6558C15.4543 21.6558 17.133 19.9817 17.133 17.9099C17.133 15.8384 15.4543 14.1551 13.3817 14.1551H6.94457C4.87264 14.1551 3.19305 15.8384 3.19305 17.9101C3.19305 19.9817 4.87264 21.6558 6.94439 21.6558H13.3817ZM55.7063 23.6998C52.5064 23.6998 49.9073 21.1102 49.9073 17.9101C49.9073 14.7098 52.5064 12.1111 55.7063 12.1111H63.7068L62.4025 14.1551H55.8543C53.7825 14.1551 52.0993 15.8384 52.0993 17.9101C52.0993 19.9817 53.7825 21.6558 55.8543 21.6558H63.8915L62.5781 23.6998H55.7063ZM82.9629 21.6558C81.2519 21.6558 79.7997 20.509 79.3559 18.9274H88.8822L90.1955 16.8834H79.3559C79.7997 15.311 81.2519 14.1551 82.9629 14.1551H89.502L90.8242 12.1107H82.8148C79.6147 12.1107 77.0157 14.7097 77.0157 17.9098C77.0157 21.11 79.6147 23.6996 82.8148 23.6996H89.6867L91 21.6558H82.9629Z" fill="white"/>
</svg>
