<svg width="91" height="36" viewBox="0 0 91 36" fill="none" xmlns="http://www.w3.org/2000/svg">
<path fill-rule="evenodd" clip-rule="evenodd" d="M11.1914 35H45.8712L79.8102 1H11.1914V35ZM51.9499 7.7758H45.1729L45.1956 23.7407L39.2944 7.77052H33.443L28.4056 21.1083C27.87 17.7144 24.3669 16.5433 21.6105 15.6661C19.7903 15.0805 17.8585 14.2192 17.8781 13.2672C17.8932 12.4859 18.9115 11.7614 20.9354 11.8694C22.2932 11.9427 23.4926 12.0522 25.8786 13.2067L28.2245 9.11163C26.049 8.00247 23.0408 7.30207 20.5741 7.2998H20.559C17.6827 7.2998 15.2877 8.23292 13.8032 9.77047C12.7682 10.8434 12.21 12.2079 12.1874 13.7167C12.1497 15.793 12.9093 17.2648 14.5055 18.4412C15.8542 19.431 17.5794 20.0732 19.0994 20.5447C20.9739 21.1265 22.5052 21.6327 22.4863 22.7101C22.4737 23.1053 22.3151 23.4817 22.0413 23.7664C21.5736 24.2499 20.857 24.4313 19.865 24.4509C17.9513 24.4917 16.5331 24.1902 14.2731 22.8522L12.1859 27.0002C14.4436 28.2861 16.8401 28.9314 19.5633 28.9314L20.1758 28.9268C22.5459 28.8838 24.4695 28.3148 25.9977 27.0833C26.0852 27.013 26.1637 26.942 26.2452 26.8702L25.9887 28.1939L31.7065 28.1758L32.7324 25.545C33.8111 25.9137 35.0377 26.1177 36.3397 26.1177C37.6085 26.1177 38.8018 25.9242 39.8601 25.5767L40.5753 28.1758L50.8342 28.1856L50.8591 22.188H53.0421C58.3187 22.188 61.4379 19.4982 61.4379 14.9876C61.4364 9.96389 58.404 7.7758 51.9499 7.7758ZM36.3397 21.4226C35.6016 21.4277 34.8687 21.2992 34.1762 21.0434L36.3155 14.2774H36.357L38.4616 21.0622C37.828 21.2889 37.1068 21.4226 36.3397 21.4226ZM52.3466 17.5353H50.8576V12.0825H52.3474C54.3313 12.0825 55.9154 12.7443 55.9154 14.7738C55.9139 16.8742 54.3305 17.5353 52.3466 17.5353Z" fill="white"/>
</svg>
