<svg width="91" height="36" viewBox="0 0 91 36" fill="none" xmlns="http://www.w3.org/2000/svg">
<path fill-rule="evenodd" clip-rule="evenodd" d="M22.9105 15.0909C21.9397 15.0909 21.1077 15.4376 20.4143 15.9923V15.2295H18.0569V24.174H20.4837V18.4884C20.8304 18.003 21.6624 17.379 22.7024 17.379C23.0491 17.379 23.3958 17.4483 23.6732 17.5177V15.2295C23.3958 15.1602 23.1185 15.0909 22.9105 15.0909ZM2.10939 21.4005C2.73342 21.9552 3.70414 22.3019 4.53618 22.3019C5.16021 22.3019 5.71491 21.9552 5.71491 21.5392C5.71491 20.1525 1.34668 20.6378 1.34668 17.795C1.34668 16.0616 3.01077 15.0215 4.74419 15.0215C5.92292 15.0215 7.17098 15.4376 7.79501 15.9229L6.68562 17.6563C6.20027 17.379 5.64557 17.0323 4.9522 17.0323C4.25883 17.0323 3.77348 17.3097 3.77348 17.795C3.77348 18.9737 8.1417 18.4884 8.1417 21.6085C8.1417 23.342 6.47761 24.382 4.60552 24.382C3.35745 24.382 2.04005 23.966 1 23.2033L2.10939 21.4005ZM17.0168 19.5978C17.0168 17.1016 15.2834 15.0215 12.7873 15.0215C10.1525 15.0215 8.41905 17.2403 8.41905 19.6671C8.41905 22.5099 10.4298 24.3127 13.0646 24.3127C14.4514 24.3127 15.8381 23.758 16.7395 22.7179L15.3527 21.3312C14.9367 21.8166 14.1047 22.3712 13.134 22.3712C11.8859 22.3712 10.8458 21.4699 10.7072 20.2218H16.8781C17.0168 20.0831 17.0168 19.8751 17.0168 19.5978ZM10.9152 18.5577C11.0538 17.7257 11.8859 16.963 12.8566 16.963C13.8273 16.963 14.5207 17.7257 14.6594 18.5577H10.9152ZM29.2201 20.7072L31.6469 15.2295H34.143L30.0522 24.174H28.3881L24.3665 15.2295H26.7933L29.2201 20.7072ZM36.1538 11C37.0552 11 37.7486 11.6934 37.7486 12.5254C37.7486 13.4268 37.0552 14.0508 36.1538 14.0508C35.2524 14.0508 34.6284 13.3575 34.6284 12.5254C34.6284 11.624 35.2524 11 36.1538 11ZM34.9751 15.2295H37.4019V24.174H34.9751V15.2295ZM47.1784 22.3019C46.1383 23.6886 44.8209 24.3127 43.1568 24.3127C40.3834 24.3127 38.3726 22.2326 38.3726 19.6671C38.3726 17.0323 40.4527 15.0215 43.1568 15.0215C44.7516 15.0215 46.069 15.7842 46.901 16.8243L45.3756 18.2804C44.8903 17.6563 44.1969 17.2403 43.3648 17.2403C41.9781 17.2403 40.938 18.3497 40.938 19.6671C40.938 21.0538 41.9088 22.0939 43.3648 22.0939C44.3356 22.0939 45.0983 21.5392 45.5143 20.9152L47.1784 22.3019ZM55.8455 22.7179C54.9441 23.758 53.5574 24.3127 52.1706 24.3127C49.5358 24.3127 47.5251 22.5099 47.5251 19.6671C47.5251 17.171 49.1891 15.0215 51.8933 15.0215C54.3201 15.0215 56.1228 17.1016 56.1228 19.5978C56.1228 19.8751 56.1228 20.0831 56.0535 20.2911H49.8132C49.9518 21.5392 50.9919 22.4406 52.24 22.4406C53.2107 22.4406 54.0427 21.8859 54.4587 21.4005L55.8455 22.7179ZM53.6267 18.5577C53.5574 17.795 52.864 16.963 51.8239 16.963C50.8532 16.963 50.0212 17.7257 49.8825 18.5577H53.6267ZM57.0242 24.174V15.2295H59.3123V15.9923C60.0057 15.4376 60.8377 15.0909 61.8084 15.0909C63.0565 15.0909 64.1659 15.6456 64.9286 16.547C65.4833 17.2403 65.8993 18.1417 65.8993 19.6671V24.2433H63.4725V19.4591C63.4725 18.5577 63.2645 18.0724 62.9178 17.795C62.5712 17.4483 62.1551 17.2403 61.5311 17.2403C60.5604 17.2403 59.7283 17.8644 59.3123 18.3497V24.174H57.0242Z" fill="white"/>
<path fill-rule="evenodd" clip-rule="evenodd" d="M71.9998 15.0216C69.0876 15.0216 66.7995 17.3097 66.7995 20.2219C66.7995 21.7473 67.4236 23.134 68.3943 24.1047C68.741 24.4514 69.365 24.4514 69.781 24.1741C70.3357 23.6887 71.1678 23.4114 71.9998 23.4114C72.9012 23.4114 73.5945 23.6887 74.2186 24.1741C74.6346 24.5208 75.1893 24.4514 75.6053 24.0354C76.576 23.0647 77.2001 21.7473 77.2001 20.2219C77.1307 17.3791 74.8426 15.0216 71.9998 15.0216ZM71.9305 22.926C70.3357 22.926 69.2957 21.7473 69.2957 20.2912C69.2957 18.8351 70.3357 17.6564 71.9305 17.6564C73.5252 17.6564 74.5653 18.8351 74.5653 20.2912C74.5653 21.7473 73.5252 22.926 71.9305 22.926Z" fill="white"/>
<path fill-rule="evenodd" clip-rule="evenodd" d="M81.9169 24.1745H80.1141L76.5779 15.23H78.9354L80.8768 20.361L82.8182 15.23H84.7597L86.6318 20.361L88.5732 15.23H91L87.4638 24.1745H85.6611L83.7196 19.1129L81.9169 24.1745Z" fill="white"/>
</svg>
