<svg width="91" height="36" viewBox="0 0 91 36" fill="none" xmlns="http://www.w3.org/2000/svg">
<path fill-rule="evenodd" clip-rule="evenodd" d="M29.4727 24.3226L30.5834 21.8013C31.7831 22.6776 33.3815 23.1332 34.9586 23.1332C36.1227 23.1332 36.8597 22.695 36.8597 22.0308C36.8419 20.1737 29.8856 21.6274 29.8322 16.9707C29.8144 14.6059 31.9647 12.7836 35.012 12.7836C36.8241 12.7836 38.6325 13.2217 39.9248 14.2199L38.8853 16.7934C37.7034 16.0561 36.2331 15.5309 34.834 15.5309C33.8835 15.5309 33.2569 15.9691 33.2569 16.5291C33.2747 18.3514 40.2844 17.3533 40.3556 21.8013C40.3556 24.2183 38.2587 25.9189 35.247 25.9189C33.0398 25.9154 31.0141 25.4076 29.4727 24.3226ZM72.125 20.8901C71.5697 21.836 70.5301 22.4829 69.3269 22.4829C67.5504 22.4829 66.1193 21.0814 66.1193 19.3495C66.1193 17.6176 67.554 16.2161 69.3269 16.2161C70.5266 16.2161 71.5697 16.8629 72.125 17.8089L75.1902 16.1465C74.0438 14.1503 71.8367 12.7836 69.3269 12.7836C65.6138 12.7836 62.602 15.7257 62.602 19.353C62.602 22.9802 65.6138 25.9224 69.3269 25.9224C71.8545 25.9224 74.0438 24.573 75.1902 22.5594L72.125 20.8901ZM41.8971 7.33398H45.7347V25.672H41.8971V7.33398ZM76.696 7.33398V25.672H80.5337V20.1702L85.087 25.672H89.9998L84.2076 19.1373L89.569 13.0409H84.8698L80.5302 18.101V7.33398H76.696Z" fill="white"/>
<path d="M57.1383 20.9246C56.583 21.8184 55.4366 22.4826 54.1444 22.4826C52.3679 22.4826 50.9368 21.0811 50.9368 19.3492C50.9368 17.6173 52.3715 16.2158 54.1444 16.2158C55.4366 16.2158 56.583 16.9148 57.1383 17.8259V20.9246ZM57.1383 13.0441V14.5326C56.5118 13.4997 54.9525 12.7798 53.3184 12.7798C49.9471 12.7798 47.2949 15.6872 47.2949 19.3318C47.2949 22.9764 49.9471 25.9186 53.3184 25.9186C54.9489 25.9186 56.5082 25.2022 57.1383 24.1658V25.6543H60.976V13.0441H57.1383Z" fill="white"/>
<path fill-rule="evenodd" clip-rule="evenodd" d="M5.75238 20.9074C5.75238 22.1872 4.69506 23.2201 3.38498 23.2201C2.0749 23.2201 1.01758 22.1837 1.01758 20.9074C1.01758 19.6311 2.0749 18.5947 3.38498 18.5947H5.75238V20.9074ZM6.9343 20.9074C6.9343 19.6276 7.99162 18.5947 9.3017 18.5947C10.6118 18.5947 11.6691 19.6276 11.6691 20.9074V26.6874C11.6691 27.9672 10.6118 29 9.3017 29C7.99162 29 6.9343 27.9672 6.9343 26.6874V20.9074Z" fill="white"/>
<path fill-rule="evenodd" clip-rule="evenodd" d="M9.30192 11.6254C7.99184 11.6254 6.93452 10.5925 6.93452 9.31268C6.93452 8.03288 7.99184 7 9.30192 7C10.612 7 11.6693 8.03288 11.6693 9.31268V11.6254H9.30192ZM9.30192 12.7973C10.612 12.7973 11.6693 13.8302 11.6693 15.11C11.6693 16.3898 10.612 17.4227 9.30192 17.4227H3.3674C2.05732 17.4227 1 16.3863 1 15.11C1 13.8337 2.05732 12.7973 3.3674 12.7973H9.30192Z" fill="white"/>
<path fill-rule="evenodd" clip-rule="evenodd" d="M18.7859 15.11C18.7859 13.8302 19.8432 12.7973 21.1533 12.7973C22.4633 12.7973 23.5207 13.8302 23.5207 15.11C23.5207 16.3898 22.4633 17.4227 21.1533 17.4227H18.7859V15.11ZM17.6039 15.11C17.6039 16.3898 16.5466 17.4227 15.2365 17.4227C13.9265 17.4227 12.8691 16.3898 12.8691 15.11V9.31268C12.8691 8.03288 13.9265 7 15.2365 7C16.5466 7 17.6039 8.03288 17.6039 9.31268V15.11Z" fill="white"/>
<path fill-rule="evenodd" clip-rule="evenodd" d="M15.2365 24.3747C16.5466 24.3747 17.6039 25.4076 17.6039 26.6874C17.6039 27.9672 16.5466 29 15.2365 29C13.9265 29 12.8691 27.9672 12.8691 26.6874V24.3747H15.2365ZM15.2365 23.2201C13.9265 23.2201 12.8691 22.1872 12.8691 20.9074C12.8691 19.6276 13.9265 18.5947 15.2365 18.5947H21.1711C22.4811 18.5947 23.5385 19.6276 23.5385 20.9074C23.5385 22.1872 22.4811 23.2201 21.1711 23.2201H15.2365Z" fill="white"/>
</svg>
