<svg width="91" height="36" viewBox="0 0 91 36" fill="none" xmlns="http://www.w3.org/2000/svg">
<path d="M48.0161 0.0156188C51.2326 -0.0956887 54.4699 0.387993 57.5042 1.46464C62.0678 3.06679 66.1471 6.00329 69.1322 9.80663C70.445 11.4781 71.545 13.3063 72.4066 15.2492C72.5591 15.573 72.6765 15.9353 72.5955 16.2948C72.495 16.8993 71.9654 17.3985 71.357 17.4585C70.7242 17.5509 70.0705 17.1563 69.8459 16.5613C68.1311 12.5273 65.206 9.02411 61.5579 6.59895C59.2953 5.08813 56.7788 3.99764 54.1293 3.3798C50.7068 2.58299 47.1472 2.58207 43.7244 3.37711C38.8572 4.49828 34.4002 7.28973 31.2572 11.1693C29.9234 12.8066 28.8251 14.6225 27.9942 16.564C27.8148 17.0146 27.4026 17.3681 26.9216 17.447C26.6885 17.4903 26.4482 17.475 26.2225 17.4023C25.9967 17.3296 25.7926 17.202 25.6285 17.0308C25.4403 16.8366 25.3113 16.5929 25.2563 16.3281C25.2014 16.0633 25.2228 15.7883 25.3181 15.5353C27.6016 10.1379 31.8293 5.60326 37.0264 2.90422C40.4274 1.13185 44.1825 0.144547 48.0154 0.0149442L48.0161 0.0156188Z" fill="white"/>
<path d="M43.7673 16.6348C43.7477 16.3541 44.0128 16.1443 44.2759 16.1383C44.6173 16.1288 44.96 16.1315 45.302 16.1362C45.5401 16.1443 45.8174 16.3029 45.8167 16.57C45.8289 19.7068 45.8093 22.8437 45.8268 25.9826C47.0978 24.5693 48.3795 23.1641 49.6551 21.7549C49.9061 21.5073 50.1044 21.1323 50.4957 21.0999C51.0218 21.0783 51.5494 21.0911 52.0762 21.0918C52.2793 21.0736 52.506 21.2598 52.4351 21.4763C52.3515 21.6436 52.199 21.7583 52.0742 21.8912C50.6947 23.2694 49.3104 24.6422 47.939 26.0264C49.2639 27.5395 50.5712 29.0675 51.89 30.5867C52.06 30.8025 52.2725 30.9853 52.4149 31.2241C52.5194 31.4103 52.3461 31.637 52.1464 31.6458C51.7079 31.67 51.2694 31.6458 50.8303 31.6559C50.6016 31.6505 50.3547 31.6842 50.1476 31.5662C49.929 31.4407 49.7968 31.2167 49.6396 31.0278C48.3673 29.4257 47.1032 27.8168 45.8262 26.2173C45.8127 27.7945 45.8221 29.3717 45.8208 30.9482C45.816 31.1304 45.8531 31.3496 45.6946 31.4818C45.4423 31.7254 45.0672 31.6404 44.7522 31.6559C44.4729 31.6464 44.1464 31.7078 43.9191 31.5014C43.7929 31.4029 43.7599 31.2349 43.7639 31.0859C43.768 26.2679 43.7633 21.4513 43.7673 16.6348ZM37.9699 21.0655C38.608 20.8604 39.3271 20.8213 39.9525 21.0918C40.1717 21.1943 40.4267 21.4142 40.3276 21.6847C40.227 22.0247 40.142 22.3681 40.0226 22.702C39.9343 22.9415 39.6563 23.0306 39.4223 22.9833C38.8961 22.8936 38.3793 22.7196 37.8397 22.7371C37.4626 22.7283 37.1152 22.93 36.8575 23.1918C36.4419 23.5986 36.2267 24.1672 36.1303 24.7312C36.054 25.1387 36.0763 25.5542 36.0722 25.9664V31.1587C36.0965 31.4434 35.8024 31.637 35.5454 31.6464C35.1926 31.6512 34.8404 31.6559 34.4876 31.6437C34.2333 31.6302 33.9466 31.4447 33.9797 31.158C33.9783 27.9537 33.9763 24.7501 33.9797 21.5458C33.9587 21.2274 34.3116 21.054 34.5881 21.0837C34.9356 21.1066 35.4105 20.9758 35.6358 21.3259C35.8078 21.7306 35.8887 22.1691 36.05 22.5779C36.5343 21.9134 37.1765 21.3272 37.9699 21.0655ZM2 21.3097C2.09782 21.1977 2.2125 21.0756 2.37575 21.0871C2.85471 21.083 3.33434 21.0722 3.81263 21.0938C4.05548 21.1012 4.22278 21.3151 4.25786 21.5404C4.72872 23.4535 5.19082 25.37 5.65898 27.2832C5.7966 27.8741 5.9639 28.4597 6.05294 29.0607C6.14536 29.6004 6.16358 30.1488 6.25195 30.6899C6.3727 29.9175 6.48131 29.1403 6.68908 28.3861C7.30161 26.102 7.91346 23.8185 8.52667 21.535C8.57389 21.2746 8.81944 21.0898 9.07983 21.0898C9.61276 21.0763 10.1457 21.085 10.6786 21.085C10.9646 21.0715 11.2702 21.2388 11.339 21.5309C11.7964 23.1965 12.2484 24.8641 12.7037 26.531C12.9803 27.6104 13.3426 28.6715 13.4991 29.7785C13.5423 30.0834 13.5841 30.3897 13.6475 30.6926C13.8188 28.9521 14.2668 27.2596 14.6351 25.5562C14.9387 24.2003 15.2355 22.8437 15.5438 21.4884C15.589 21.2159 15.877 21.079 16.1307 21.0864C16.561 21.0837 16.9928 21.0715 17.4232 21.0931C17.6782 21.1006 17.8252 21.3832 17.7348 21.6112C16.8714 24.8 16.0099 27.9915 15.1451 31.181C15.1224 31.3065 15.0574 31.4204 14.9609 31.5039C14.8644 31.5873 14.7423 31.6353 14.6149 31.6397C13.947 31.662 13.2785 31.6458 12.6113 31.6491C12.3718 31.664 12.1189 31.5358 12.0764 31.2835C11.4787 29.0911 10.8931 26.8933 10.3008 24.6988C10.087 23.9352 9.99997 23.1439 9.90958 22.358C9.8003 23.0575 9.74565 23.7679 9.55879 24.4553C8.95301 26.7152 8.34385 28.9757 7.73605 31.2363C7.66791 31.6026 7.24899 31.6748 6.93801 31.6512C6.31738 31.6404 5.69676 31.666 5.07613 31.6404C4.85487 31.6404 4.68487 31.469 4.6444 31.2599C3.77417 28.0832 2.90598 24.9052 2.03373 21.7306C2.00337 21.5917 2.00675 21.45 2.00067 21.3104L2 21.3097ZM80.293 21.0931C80.747 21.0845 81.2011 21.0845 81.655 21.0931C81.9303 21.0972 82.19 21.2861 82.277 21.5492C83.0595 23.5952 83.8366 25.6439 84.6178 27.6913C84.7818 28.1062 84.8958 28.5393 84.9686 28.9798C85.2924 27.7655 85.7228 26.5843 86.1006 25.3862C86.5209 24.091 86.9418 22.7951 87.3641 21.4992C87.4268 21.2739 87.642 21.1201 87.87 21.1012C88.2404 21.0736 88.6121 21.0972 88.9831 21.0877C89.2003 21.0898 89.458 21.0648 89.624 21.2388C89.7306 21.3292 89.7076 21.4797 89.6631 21.5977C88.4124 25.1656 87.1651 28.7349 85.9157 32.3042C85.6985 32.8985 85.5319 33.5211 85.1825 34.0561C84.6812 34.8703 83.8684 35.4565 82.9752 35.7736C82.6629 35.8707 82.3411 36.0846 82.0051 35.9645C81.767 35.9038 81.6759 35.6562 81.5484 35.4741C81.4574 35.3088 81.2887 35.1563 81.3238 34.9506C81.3407 34.7469 81.5039 34.5809 81.6962 34.5263C82.0726 34.3967 82.4558 34.2531 82.7607 33.9873C83.5027 33.3599 83.9608 32.4323 84.1355 31.4886C84.0168 31.069 83.7982 30.6838 83.639 30.2784C82.4463 27.5058 81.2536 24.7332 80.0576 21.9613C79.9861 21.7805 79.8795 21.6072 79.8593 21.4109C79.862 21.195 80.1102 21.0992 80.293 21.0931ZM24.6771 22.4342C24.0261 22.5556 23.4324 22.9604 23.1026 23.5372C22.5507 24.4728 22.4867 25.6014 22.5116 26.6626C22.5514 27.6232 22.7052 28.6479 23.3184 29.4243C23.7751 30.0085 24.5259 30.3013 25.2565 30.2905C25.9588 30.3128 26.6948 30.0746 27.171 29.541C27.7788 28.8759 27.9738 27.953 28.0581 27.0828C28.0945 26.2274 28.1121 25.3572 27.8901 24.5228C27.7141 23.8171 27.3417 23.1129 26.6968 22.7324C26.0971 22.3647 25.3564 22.3303 24.6771 22.4342ZM24.9516 20.913C26.1288 20.8402 27.3626 21.085 28.334 21.7826C29.2036 22.4005 29.7938 23.3537 30.0697 24.3757C30.3976 25.5954 30.3962 26.8973 30.0987 28.123C29.8188 29.2537 29.1638 30.3188 28.1762 30.9617C27.1197 31.662 25.7935 31.8441 24.5543 31.695C23.4985 31.5648 22.4698 31.1014 21.7345 30.3236C20.871 29.4189 20.442 28.1716 20.3529 26.9391C20.2443 25.5724 20.4541 24.1261 21.2137 22.9584C21.7763 22.0801 22.6708 21.4345 23.6679 21.1404C24.0841 21.0102 24.5178 20.9494 24.9516 20.913ZM59.6816 22.3782C59.036 22.4201 58.4133 22.7918 58.1246 23.3807C57.562 24.4701 57.5505 25.7384 57.5782 26.9358C57.6234 27.719 57.7084 28.5278 58.0734 29.2341C58.3196 29.7104 58.7682 30.0861 59.2977 30.2015C60.1086 30.3964 61.0625 30.2311 61.6386 29.591C62.1938 28.9589 62.3766 28.0994 62.4616 27.2859C62.5203 26.359 62.5236 25.4125 62.2936 24.5052C62.1357 23.8981 61.8679 23.2923 61.3869 22.8707C60.9262 22.4646 60.284 22.3081 59.6816 22.3782ZM62.4589 16.5005C62.444 16.255 62.695 16.0978 62.9135 16.0789C63.2637 16.0593 63.6138 16.0688 63.9646 16.0722C64.2317 16.0701 64.5299 16.2685 64.4914 16.5646C64.4914 21.4048 64.4921 26.2436 64.4907 31.0818C64.5089 31.3321 64.2627 31.5264 64.032 31.5405C63.7534 31.556 63.4741 31.556 63.1969 31.5365C63.0012 31.5243 62.811 31.3989 62.7449 31.2113C62.6397 30.897 62.585 30.5705 62.5054 30.2507C62.1189 30.7749 61.621 31.2383 61.0017 31.469C60.1187 31.7935 59.1358 31.7996 58.2292 31.5776C57.7746 31.4645 57.3487 31.2575 56.979 30.9698C56.6093 30.6821 56.304 30.3202 56.0826 29.9073C55.3925 28.6486 55.3109 27.1678 55.3541 25.7633C55.3784 24.5632 55.6077 23.2977 56.3889 22.3452C56.9785 21.5384 57.9452 21.0749 58.9206 20.9542C59.8293 20.8213 60.8135 20.9744 61.565 21.5242C61.9212 21.7738 62.2059 22.1097 62.4602 22.4605C62.4528 20.4745 62.4548 18.4872 62.4589 16.5005ZM72.2317 22.4389C71.9079 22.5051 71.5942 22.6346 71.3324 22.8376C70.809 23.2451 70.5486 23.8927 70.4096 24.5221C70.2072 25.5198 70.2106 26.5506 70.3151 27.5591C70.413 28.3011 70.5985 29.0918 71.1422 29.6402C71.5854 30.105 72.2526 30.275 72.8773 30.2446C73.5491 30.2689 74.248 30.0186 74.6818 29.4911C75.2235 28.8354 75.3766 27.9638 75.4555 27.1435C75.5055 26.1775 75.5061 25.1886 75.2349 24.2516C75.0636 23.6674 74.7499 23.0865 74.221 22.754C73.6389 22.3715 72.9029 22.3364 72.2317 22.4389ZM71.3324 21.114C72.27 20.8583 73.2563 20.8383 74.2035 21.056C75.0784 21.2584 75.8981 21.7495 76.4357 22.4767C77.0037 23.2228 77.2911 24.147 77.4105 25.0685C77.5144 25.7788 77.4847 26.4986 77.4847 27.2137C77.4847 28.5055 77.4847 29.7974 77.482 31.0885C77.4955 31.2457 77.3963 31.3854 77.2682 31.4677C77.0516 31.6006 76.7825 31.5419 76.541 31.5567C76.2698 31.5547 75.9136 31.579 75.7652 31.2963C75.6215 30.9651 75.5918 30.5947 75.4994 30.246C75.1351 30.6878 74.7587 31.1439 74.2325 31.3995C73.4304 31.7962 72.4934 31.7726 71.6353 31.6053C70.5857 31.3975 69.6183 30.7769 69.0247 29.8824C68.3177 28.8408 68.0613 27.555 68.0708 26.3118C68.062 25.1002 68.2995 23.8482 68.9727 22.8228C69.5117 21.9849 70.3759 21.3785 71.3324 21.114Z" fill="white"/>
</svg>
